<?xml version="1.0" encoding="UTF-8" standalone="no"?>
<!-- Created with Inkscape (http://www.inkscape.org/) -->

<svg
   xmlns:dc="http://purl.org/dc/elements/1.1/"
   xmlns:cc="http://creativecommons.org/ns#"
   xmlns:rdf="http://www.w3.org/1999/02/22-rdf-syntax-ns#"
   xmlns:svg="http://www.w3.org/2000/svg"
   xmlns="http://www.w3.org/2000/svg"
   xmlns:sodipodi="http://sodipodi.sourceforge.net/DTD/sodipodi-0.dtd"
   xmlns:inkscape="http://www.inkscape.org/namespaces/inkscape"
   width="77.477409mm"
   height="30.991171mm"
   viewBox="0 0 77.477409 30.991171"
   version="1.1"
   id="svg3894"
   inkscape:version="0.92.4 5da689c313, 2019-01-14"
   sodipodi:docname="uniandes_logo.svg">
  <defs
     id="defs3888" />
  <sodipodi:namedview
     id="base"
     pagecolor="#ffffff"
     bordercolor="#666666"
     borderopacity="1.0"
     inkscape:pageopacity="0.0"
     inkscape:pageshadow="2"
     inkscape:zoom="0.35"
     inkscape:cx="400"
     inkscape:cy="560"
     inkscape:document-units="mm"
     inkscape:current-layer="layer1"
     showgrid="false"
     fit-margin-top="0"
     fit-margin-left="0"
     fit-margin-right="0"
     fit-margin-bottom="0"
     inkscape:window-width="1366"
     inkscape:window-height="717"
     inkscape:window-x="0"
     inkscape:window-y="25"
     inkscape:window-maximized="1" />
  <metadata
     id="metadata3891">
    <rdf:RDF>
      <cc:Work
         rdf:about="">
        <dc:format>image/svg+xml</dc:format>
        <dc:type
           rdf:resource="http://purl.org/dc/dcmitype/StillImage" />
        <dc:title></dc:title>
      </cc:Work>
    </rdf:RDF>
  </metadata>
  <g
     inkscape:label="Layer 1"
     inkscape:groupmode="layer"
     id="layer1"
     transform="translate(0,-266.00883)">
    <path
       d="M 77.477406,297 H 0 V 266.00883 H 77.477406 V 297"
       style="fill:#ffffff;fill-opacity:1;fill-rule:nonzero;stroke:none;stroke-width:0.03527778"
       id="path62"
       inkscape:connector-curvature="0" />
    <path
       d="m 21.311375,289.32003 c -3.432986,2.22603 -6.997699,2.10538 -6.997699,2.10538 0,0 -0.09811,-0.45474 -0.05898,-1.23896 0.03902,-0.78458 0.467184,-0.56339 0.776958,-1.18322 0.112289,-0.22472 0.209056,-0.38029 0.384881,-0.90734 0.0072,-0.0219 -0.20574,-3.77896 -0.259504,-5.37351 -0.02893,-0.85902 -0.190429,-2.2927 -0.379624,-3.68688 -0.111619,-0.82586 -0.362832,-1.48026 -0.47886,-2.26484 -0.168134,-1.13241 -0.363115,-2.41017 -0.363115,-2.41017 -0.139594,0.36089 -0.339689,1.71026 -0.540631,3.23356 -0.09631,0.7306 -0.193182,1.50142 -0.283458,2.22214 -0.191276,1.52577 -0.667667,5.61058 -0.739739,5.83213 -0.108867,0.33619 -0.120579,-0.0889 -0.120579,-0.0889 0,0 0.282645,-4.28484 0.367664,-6.16374 0.04135,-0.91898 0.110949,-1.92828 0.225319,-2.89665 0.08611,-0.72743 0.197768,-1.43158 0.341772,-2.0574 0,0 0.490572,-1.48202 0.646959,-1.5113 0.156422,-0.0296 0.722524,0.9338 0.913659,1.7914 0.433105,1.93569 0.688587,2.18334 1.018364,4.21746 0.313795,1.93252 0.600145,3.54894 0.638704,3.81353 0.140582,0.95885 0.07098,3.9504 -0.170851,5.14173 -0.05719,0.32526 -0.07482,0.44486 -0.286914,0.6597 -0.497628,0.50341 -0.851358,1.10313 -0.851358,1.49542 0,0.39264 -0.06544,0.38488 0.02755,0.61242 0,0 0.656237,0.98214 4.427643,-1.26576 0,0 1.178489,-0.61736 1.178489,-1.98014 v -13.78338 c 0,0 -3.73955,-1.26436 -6.619663,-1.26436 -2.880501,0 -6.487124,1.26153 -6.487124,1.26153 V 287.354 c 0,0.84455 0.122943,2.42852 1.329125,2.96933 0,0 -3.212218,-1.09961 -3.212218,-2.98627 v -14.87275 c 0,0 4.903752,-0.90241 8.372263,-0.90241 3.468547,0 8.458694,0.90241 8.458694,0.90241 0,0 0,13.60805 0,14.89039 0,1.28235 -1.257724,1.96533 -1.257724,1.96533"
       style="fill:#231f20;fill-opacity:1;fill-rule:nonzero;stroke:none;stroke-width:0.03527778"
       id="path64"
       inkscape:connector-curvature="0" />
    <path
       d="m 67.90972,277.80078 c -0.342548,0.19085 -0.803626,0.28645 -1.382183,0.28645 -0.583848,0 -1.037167,-0.17639 -1.36031,-0.52987 -0.32385,-0.35313 -0.485071,-0.84561 -0.485071,-1.47849 0,-0.63782 0.161221,-1.14512 0.485071,-1.52294 0.314325,-0.36301 0.730954,-0.54469 1.251302,-0.54469 0.23001,0 0.429331,0.0254 0.596193,0.0759 v -1.60091 h 0.894998 z m -0.894998,-0.37677 v -2.85327 c -0.117827,-0.0339 -0.250118,-0.0515 -0.397578,-0.0515 -0.696032,0 -1.044575,0.50271 -1.044575,1.50742 0,0.99095 0.325612,1.4859 0.978251,1.4859 0.215549,0 0.370065,-0.0293 0.463902,-0.0885"
       style="fill:#231f20;fill-opacity:1;fill-rule:nonzero;stroke:none;stroke-width:0.03527778"
       id="path66"
       inkscape:connector-curvature="0" />
    <path
       d="m 72.000885,276.00549 -2.427465,0.35242 c 0.07373,0.73484 0.434975,1.10208 1.081969,1.10208 0.382413,0 0.715788,-0.0723 1.00048,-0.2166 l 0.212725,0.56479 c -0.338315,0.18592 -0.774349,0.27905 -1.309159,0.27905 -0.568325,0 -1.017413,-0.17886 -1.3462,-0.53657 -0.328083,-0.35772 -0.492831,-0.86748 -0.492831,-1.52894 0,-0.64241 0.15099,-1.14371 0.45226,-1.50354 0.301625,-0.36019 0.715081,-0.5401 1.239308,-0.5401 0.529873,0 0.931688,0.1725 1.2065,0.51787 0.275167,0.34537 0.402522,0.84843 0.382413,1.50954 z m -0.837848,-0.35172 c 0,-0.74965 -0.26035,-1.12501 -0.781402,-1.12501 -0.274815,0 -0.485775,0.11042 -0.632883,0.33126 -0.161925,0.23989 -0.23848,0.58843 -0.228248,1.04387 l 1.642533,-0.25012"
       style="fill:#231f20;fill-opacity:1;fill-rule:nonzero;stroke:none;stroke-width:0.03527778"
       id="path68"
       inkscape:connector-curvature="0" />
    <path
       d="m 26.888546,288.58872 h -1.406949 v -8.69809 h 1.406949 v 8.69809"
       style="fill:#231f20;fill-opacity:1;fill-rule:nonzero;stroke:none;stroke-width:0.03527778"
       id="path70"
       inkscape:connector-curvature="0" />
    <path
       d="m 33.378563,285.4871 c 0,0.96026 -0.211526,1.72473 -0.634296,2.29341 -0.461396,0.61453 -1.110721,0.92145 -1.948143,0.92145 -0.837848,0 -1.487313,-0.30692 -1.948286,-0.92145 -0.423053,-0.56868 -0.634296,-1.33315 -0.634296,-2.29341 0,-0.96767 0.211243,-1.73638 0.634296,-2.30505 0.460973,-0.61454 1.110438,-0.92181 1.948286,-0.92181 0.845008,0 1.494753,0.30727 1.948143,0.92181 0.42277,0.56867 0.634296,1.33738 0.634296,2.30505 z m -1.396084,-0.0109 c 0,-1.55222 -0.395499,-2.32869 -1.186355,-2.32869 -0.791422,0 -1.186921,0.77647 -1.186921,2.32869 0,1.51377 0.395499,2.27083 1.186921,2.27083 0.790856,0 1.186355,-0.75706 1.186355,-2.27083"
       style="fill:#231f20;fill-opacity:1;fill-rule:nonzero;stroke:none;stroke-width:0.03527778"
       id="path72"
       inkscape:connector-curvature="0" />
    <path
       d="m 38.201245,286.80049 c 0,0.52282 -0.203903,0.96837 -0.611362,1.33703 -0.407106,0.36865 -0.941564,0.5535 -1.603023,0.5535 -0.707318,0 -1.280266,-0.14957 -1.718487,-0.44908 l 0.368901,-0.89782 c 0.300143,0.23883 0.68848,0.35772 1.165436,0.35772 0.284692,0 0.515057,-0.0826 0.69215,-0.24765 0.176742,-0.1651 0.26529,-0.37501 0.26529,-0.62865 0,-0.26106 -0.06915,-0.46673 -0.207433,-0.61666 -0.137938,-0.14958 -0.372534,-0.28646 -0.703088,-0.40922 -0.94502,-0.36125 -1.417283,-0.94157 -1.417283,-1.74061 0,-0.50764 0.182314,-0.93415 0.547087,-1.27988 0.364667,-0.34607 0.8388,-0.51893 1.422294,-0.51893 0.629708,0 1.167342,0.14605 1.6129,0.43815 l -0.345017,0.8188 c -0.283985,-0.23143 -0.613833,-0.34714 -0.989541,-0.34714 -0.276577,0 -0.493184,0.0787 -0.649817,0.23636 -0.157692,0.15734 -0.23636,0.35172 -0.23636,0.58173 0,0.40782 0.307268,0.73413 0.921453,0.98002 0.9906,0.3997 1.4859,1.01 1.4859,1.83233"
       style="fill:#231f20;fill-opacity:1;fill-rule:nonzero;stroke:none;stroke-width:0.03527778"
       id="path74"
       inkscape:connector-curvature="0" />
    <path
       d="m 48.578558,288.58872 h -1.641475 l -0.663929,-2.2165 h -2.780946 l -0.688975,2.2165 h -1.429104 l 2.857148,-8.62259 h 1.502833 z m -2.530829,-3.14396 -0.889704,-3.03671 c -0.125238,-0.42615 -0.20038,-0.77364 -0.22578,-1.04104 h -0.02506 c -0.04128,0.22542 -0.121004,0.57255 -0.237421,1.04104 l -0.927452,3.03671 h 2.305402"
       style="fill:#231f20;fill-opacity:1;fill-rule:nonzero;stroke:none;stroke-width:0.03527778"
       id="path76"
       inkscape:connector-curvature="0" />
    <path
       d="m 54.364112,288.58872 h -1.406877 v -4.40373 c 0,-0.69179 -0.372181,-1.03752 -1.116893,-1.03752 -0.353484,0 -0.675923,0.0575 -0.968023,0.17287 v 5.26838 h -1.407232 v -5.87869 c 0.638175,-0.29951 1.448507,-0.44979 2.432405,-0.44979 0.868185,0 1.510239,0.19191 1.925105,0.57644 0.360892,0.32279 0.541515,0.76482 0.541515,1.32609 v 4.42595"
       style="fill:#231f20;fill-opacity:1;fill-rule:nonzero;stroke:none;stroke-width:0.03527778"
       id="path78"
       inkscape:connector-curvature="0" />
    <path
       d="m 60.705997,288.25252 c -0.538337,0.29951 -1.261533,0.44944 -2.168525,0.44944 -0.915103,0 -1.625952,-0.27622 -2.133952,-0.82973 -0.506941,-0.55316 -0.760589,-1.32574 -0.760589,-2.31634 0,-0.99907 0.253648,-1.79423 0.760589,-2.38619 0.492832,-0.56868 1.145824,-0.85337 1.961092,-0.85337 0.360892,0 0.672394,0.0392 0.934157,0.11712 v -2.5146 h 1.407228 z m -1.407228,-0.58702 v -4.47111 c -0.184505,-0.054 -0.392642,-0.0808 -0.622655,-0.0808 -1.0922,0 -1.637945,0.78776 -1.637945,2.3622 0,1.55223 0.511175,2.32763 1.533876,2.32763 0.338315,0 0.579967,-0.0459 0.726724,-0.13793"
       style="fill:#231f20;fill-opacity:1;fill-rule:nonzero;stroke:none;stroke-width:0.03527778"
       id="path80"
       inkscape:connector-curvature="0" />
    <path
       d="m 67.107504,285.44194 -3.804709,0.55351 c 0.115007,1.15288 0.680157,1.72896 1.694392,1.72896 0.599369,0 1.122185,-0.115 1.568098,-0.34537 l 0.334079,0.88583 c -0.530577,0.29175 -1.213908,0.43709 -2.051754,0.43709 -0.891471,0 -1.595263,-0.28046 -2.109965,-0.84102 -0.514701,-0.56092 -0.772231,-1.35961 -0.772231,-2.39713 0,-1.00612 0.236363,-1.79175 0.709083,-2.3562 0.472723,-0.5648 1.120423,-0.84737 1.942397,-0.84737 0.830791,0 1.4605,0.27128 1.891241,0.8128 0.430742,0.54187 0.630412,1.33173 0.599369,2.3689 z m -1.316567,-0.55315 c 0,-1.17617 -0.407458,-1.76425 -1.222375,-1.76425 -0.430035,0 -0.76059,0.17322 -0.991658,0.51929 -0.253294,0.37642 -0.371827,0.92216 -0.356659,1.63689 l 2.570692,-0.39193"
       style="fill:#231f20;fill-opacity:1;fill-rule:nonzero;stroke:none;stroke-width:0.03527778"
       id="path82"
       inkscape:connector-curvature="0" />
    <path
       d="m 71.941619,286.80049 c 0,0.52282 -0.203907,0.96837 -0.611013,1.33703 -0.407811,0.36865 -0.941917,0.5535 -1.603375,0.5535 -0.706967,0 -1.280229,-0.14957 -1.718379,-0.44908 l 0.368652,-0.89782 c 0.300215,0.23883 0.688975,0.35772 1.165577,0.35772 0.284691,0 0.515408,-0.0826 0.691798,-0.24765 0.177093,-0.1651 0.26529,-0.37501 0.26529,-0.62865 0,-0.26106 -0.06879,-0.46673 -0.20673,-0.61666 -0.138287,-0.14958 -0.372533,-0.28646 -0.703437,-0.40922 -0.945092,-0.36125 -1.417815,-0.94157 -1.417815,-1.74061 0,-0.50764 0.182385,-0.93415 0.54751,-1.27988 0.364773,-0.34607 0.839259,-0.51893 1.423107,-0.51893 0.629708,0 1.16699,0.14605 1.612193,0.43815 l -0.345368,0.8188 c -0.283634,-0.23143 -0.613834,-0.34714 -0.98919,-0.34714 -0.276225,0 -0.492829,0.0787 -0.65052,0.23636 -0.156988,0.15734 -0.235657,0.35172 -0.235657,0.58173 0,0.40782 0.307269,0.73413 0.921102,0.98002 0.990955,0.3997 1.486255,1.01 1.486255,1.83233"
       style="fill:#231f20;fill-opacity:1;fill-rule:nonzero;stroke:none;stroke-width:0.03527778"
       id="path84"
       inkscape:connector-curvature="0" />
    <path
       d="m 32.903829,278.02726 h -0.895844 v -2.80988 c 0,-0.44167 -0.237596,-0.66251 -0.713423,-0.66251 -0.225319,0 -0.43134,0.037 -0.617643,0.11077 v 3.36162 h -0.895842 v -3.75038 c 0.406929,-0.19085 0.923676,-0.28681 1.550281,-0.28681 0.553685,0 0.962694,0.12312 1.226854,0.36795 0.230399,0.20567 0.345617,0.48754 0.345617,0.84561 v 2.82363"
       style="fill:#231f20;fill-opacity:1;fill-rule:nonzero;stroke:none;stroke-width:0.03527778"
       id="path86"
       inkscape:connector-curvature="0" />
    <path
       d="m 34.835428,272.93491 c 0,0.12277 -0.04794,0.22754 -0.143722,0.31327 -0.09578,0.0861 -0.21209,0.12912 -0.349356,0.12912 -0.137371,0 -0.253822,-0.043 -0.349601,-0.12912 -0.09536,-0.0857 -0.143299,-0.1905 -0.143299,-0.31327 0,-0.12241 0.04794,-0.22789 0.143299,-0.31609 0.09578,-0.0882 0.21223,-0.13264 0.349601,-0.13264 0.137266,0 0.253577,0.043 0.349356,0.12876 0.09578,0.0864 0.143722,0.19262 0.143722,0.31997 z m -0.04713,5.09235 h -0.895879 v -3.96522 h 0.895879 v 3.96522"
       style="fill:#231f20;fill-opacity:1;fill-rule:nonzero;stroke:none;stroke-width:0.03527778"
       id="path88"
       inkscape:connector-curvature="0" />
    <path
       d="m 38.871525,274.06204 -1.272471,3.96522 h -0.853369 l -1.295048,-3.96522 h 0.956382 l 0.699206,2.5594 c 0.05398,0.1912 0.08572,0.37253 0.0956,0.54398 h 0.01447 c 0.02434,-0.14252 0.05891,-0.32349 0.10301,-0.54398 l 0.713316,-2.5594 h 0.838907"
       style="fill:#231f20;fill-opacity:1;fill-rule:nonzero;stroke:none;stroke-width:0.03527778"
       id="path90"
       inkscape:connector-curvature="0" />
    <path
       d="m 42.62896,276.01748 -2.427465,0.35243 c 0.07373,0.73483 0.433917,1.10208 1.080913,1.10208 0.382411,0 0.715786,-0.0723 1.000477,-0.21661 l 0.213784,0.5648 c -0.338315,0.18662 -0.775407,0.27905 -1.309159,0.27905 -0.569383,0 -1.017765,-0.17922 -1.346552,-0.53658 -0.328438,-0.35772 -0.493183,-0.86713 -0.493183,-1.52894 0,-0.64241 0.150635,-1.14335 0.452612,-1.50318 0.301625,-0.36019 0.714375,-0.54046 1.239663,-0.54046 0.529167,0 0.931333,0.17251 1.205794,0.51788 0.274814,0.34537 0.402166,0.84843 0.383116,1.50953 z m -0.837848,-0.35136 c 0,-0.75001 -0.260702,-1.12536 -0.781402,-1.12536 -0.275166,0 -0.486481,0.11042 -0.633941,0.33125 -0.161925,0.24025 -0.237774,0.58844 -0.228249,1.04423 l 1.643592,-0.25012"
       style="fill:#231f20;fill-opacity:1;fill-rule:nonzero;stroke:none;stroke-width:0.03527778"
       id="path92"
       inkscape:connector-curvature="0" />
    <path
       d="m 45.35452,273.99466 -0.177093,0.65616 c -0.132292,-0.0441 -0.270227,-0.0663 -0.41275,-0.0663 -0.17145,0 -0.313973,0.0321 -0.427215,0.096 v 3.3468 H 43.44176 v -3.75284 c 0.43674,-0.21061 1.074209,-0.3041 1.91276,-0.27976"
       style="fill:#231f20;fill-opacity:1;fill-rule:nonzero;stroke:none;stroke-width:0.03527778"
       id="path94"
       inkscape:connector-curvature="0" />
    <path
       d="m 48.213433,276.88779 c 0,0.33337 -0.130529,0.61806 -0.390173,0.85372 -0.26035,0.23565 -0.600781,0.35278 -1.02235,0.35278 -0.45226,0 -0.817385,-0.0956 -1.09714,-0.28716 l 0.235657,-0.57397 c 0.190852,0.15275 0.438856,0.2293 0.743656,0.2293 0.180975,0 0.328436,-0.0529 0.441677,-0.15875 0.112184,-0.10442 0.168627,-0.23883 0.168627,-0.40075 0,-0.16652 -0.0441,-0.29775 -0.131585,-0.39335 -0.0889,-0.0953 -0.238477,-0.18239 -0.448382,-0.26106 -0.602895,-0.23036 -0.904875,-0.60078 -0.904875,-1.11089 0,-0.3235 0.116417,-0.59585 0.34925,-0.81668 0.233188,-0.22084 0.535517,-0.33091 0.907699,-0.33091 0.40146,0 0.744714,0.0935 1.0287,0.27905 l -0.220486,0.5214 c -0.181329,-0.14746 -0.391583,-0.22119 -0.631825,-0.22119 -0.176389,0 -0.315031,0.0505 -0.415573,0.15099 -0.09983,0.10054 -0.150283,0.22472 -0.150283,0.37183 0,0.26 0.195792,0.46849 0.588433,0.62512 0.632532,0.25576 0.948973,0.64523 0.948973,1.17052"
       style="fill:#231f20;fill-opacity:1;fill-rule:nonzero;stroke:none;stroke-width:0.03527778"
       id="path96"
       inkscape:connector-curvature="0" />
    <path
       d="m 49.967444,272.93491 c 0,0.12277 -0.04798,0.22754 -0.143227,0.31327 -0.0956,0.0861 -0.212373,0.12912 -0.34925,0.12912 -0.137938,0 -0.254355,-0.043 -0.349957,-0.12912 -0.09525,-0.0857 -0.143581,-0.1905 -0.143581,-0.31327 0,-0.12241 0.04833,-0.22789 0.143581,-0.31609 0.0956,-0.0882 0.212019,-0.13264 0.349957,-0.13264 0.136877,0 0.253645,0.043 0.34925,0.12876 0.09525,0.0864 0.143227,0.19262 0.143227,0.31997 z m -0.04692,5.09235 H 49.02482 v -3.96522 h 0.895705 v 3.96522"
       style="fill:#231f20;fill-opacity:1;fill-rule:nonzero;stroke:none;stroke-width:0.03527778"
       id="path98"
       inkscape:connector-curvature="0" />
    <path
       d="m 53.992637,277.81277 c -0.3429,0.19121 -0.803275,0.28646 -1.382183,0.28646 -0.582787,0 -1.036812,-0.17675 -1.359959,-0.52988 -0.32385,-0.35277 -0.485068,-0.84561 -0.485068,-1.47849 0,-0.63782 0.161218,-1.14547 0.485068,-1.52294 0.314325,-0.36301 0.730957,-0.54434 1.251305,-0.54434 0.23001,0 0.429329,0.0251 0.595839,0.0751 v -1.60055 h 0.894998 z m -0.894998,-0.37641 v -2.85327 c -0.117827,-0.0342 -0.250119,-0.0519 -0.397579,-0.0519 -0.696383,0 -1.044575,0.50271 -1.044575,1.50742 0,0.99095 0.326673,1.4859 0.978607,1.4859 0.215545,0 0.370768,-0.0293 0.463547,-0.0882"
       style="fill:#231f20;fill-opacity:1;fill-rule:nonzero;stroke:none;stroke-width:0.03527778"
       id="path100"
       inkscape:connector-curvature="0" />
    <path
       d="m 57.811456,277.81277 c -0.357717,0.19121 -0.835377,0.28646 -1.434042,0.28646 -1.078087,0 -1.617133,-0.40182 -1.617133,-1.20509 0,-0.47978 0.218371,-0.84032 0.654756,-1.08021 0.3429,-0.18591 0.861835,-0.31362 1.558573,-0.3817 v -0.21343 c 0,-0.43604 -0.262821,-0.6537 -0.787048,-0.6537 -0.328435,0 -0.658635,0.0801 -0.99201,0.24024 l -0.206023,-0.51435 c 0.412043,-0.20038 0.864658,-0.30092 1.359958,-0.30092 0.975077,0 1.462969,0.45614 1.462969,1.36737 z m -0.837846,-0.32173 v -1.63372 c -0.4699,0.0589 -0.802923,0.14923 -0.998363,0.27235 -0.244827,0.15204 -0.367241,0.39722 -0.367241,0.73589 0,0.49036 0.276931,0.7359 0.829381,0.7359 0.210257,0 0.38876,-0.037 0.536223,-0.11042"
       style="fill:#231f20;fill-opacity:1;fill-rule:nonzero;stroke:none;stroke-width:0.03527778"
       id="path102"
       inkscape:connector-curvature="0" />
    <path
       d="m 61.849704,277.81277 c -0.343252,0.19121 -0.803982,0.28646 -1.382184,0.28646 -0.583493,0 -1.037166,-0.17675 -1.361016,-0.52988 -0.323144,-0.35277 -0.485069,-0.84561 -0.485069,-1.47849 0,-0.63782 0.161925,-1.14547 0.485775,-1.52294 0.313619,-0.36301 0.730602,-0.54434 1.250596,-0.54434 0.231071,0 0.429331,0.0251 0.596196,0.0751 v -1.60055 h 0.895702 z m -0.895702,-0.37641 v -2.85327 c -0.11783,-0.0342 -0.250121,-0.0519 -0.396875,-0.0519 -0.696738,0 -1.044575,0.50271 -1.044575,1.50742 0,0.99095 0.325967,1.4859 0.978252,1.4859 0.2159,0 0.370065,-0.0293 0.463198,-0.0882"
       style="fill:#231f20;fill-opacity:1;fill-rule:nonzero;stroke:none;stroke-width:0.03527778"
       id="path104"
       inkscape:connector-curvature="0" />
    <path
       d="m 25.470696,272.50735 h 0.953876 v 4.26296 c 0,0.46849 0.252164,0.70309 0.757238,0.70309 0.239781,0 0.458187,-0.0392 0.655955,-0.11712 v -4.84893 h 0.953876 v 5.26309 c -0.432295,0.20284 -0.981853,0.30444 -1.648849,0.30444 -0.58868,0 -1.023867,-0.13017 -1.304854,-0.39052 -0.245004,-0.21908 -0.367242,-0.51858 -0.367242,-0.89888 v -4.27813"
       style="fill:#231f20;fill-opacity:1;fill-rule:nonzero;stroke:none;stroke-width:0.03527778"
       id="path106"
       inkscape:connector-curvature="0" />
  </g>
</svg>
